<svg width="160" height="160" version="1.1" viewBox="0 0 160 160" xmlns="http://www.w3.org/2000/svg">
 <path d="m10.366 158.08c-4.4154-2.6924-8.0767-7.8588-9.2847-13.101-1.4607-6.3394-1.4421-121.2 0.020757-128.02 1.3892-6.4777 7.475-13.223 13.398-14.85 2.4358-0.66917 14.337-1.1011 30.434-1.1045 24.356-0.0051385 26.758 0.15093 30.547 1.9852 4.9389 2.3909 41.915 39.291 43.47 43.381 0.61056 1.6059 1.0489 11.507 1.0489 23.694v20.935h-10v-29.85l-19.93-0.32506c-18.418-0.30041-20.143-0.48466-22.75-2.4296-6.1758-4.6082-6.7887-7.0216-7.1469-28.145l-0.32646-19.25h-21.489c-12.826 0-22.265 0.41508-23.413 1.0296-4.9572 2.653-4.9446 2.4771-4.9446 68.97 0 66.493-0.012614 66.317 4.9446 68.97 1.0974 0.58733 9.0402 1.0296 18.49 1.0296h16.566v9l-18.25-4e-3c-16.203-3e-3 -18.602-0.21809-21.384-1.9149zm98.743-108.83c-1.1699-2.1301-37.451-38.25-38.421-38.25-0.37872 0-0.68858 8.2929-0.68858 18.429 0 15.42 0.25655 18.685 1.5714 20 1.3151 1.3151 4.5833 1.5714 20.035 1.5714 17.284 0 18.402-0.11182 17.503-1.75zm-38.066 108.83c-0.83321-1.5569 0.57325-5.1444 7.4648-19.041 4.6703-9.4174 8.4915-17.329 8.4915-17.582s-2.925-0.45909-6.5-0.45909c-7.1735 0-11.046-2.2548-9.8376-5.7273 1.2721-3.6546 3.4358-4.2727 14.957-4.2727 11.57 0 14.38 0.89547 14.38 4.5825 0 0.79182-3.8275 9.0847-8.5056 18.429l-8.5056 16.989h6.9341c8.7315 0 11.488 2.1593 9.47 7.4182-0.51158 1.3332-2.7067 1.5818-13.965 1.5818-12.145 0-13.451-0.17421-14.384-1.9183zm39.936-0.12023c-0.71852-1.3426-0.98659-9.223-0.78519-23.082 0.28311-19.481 0.44993-21.149 2.2469-22.461 2.5059-1.8302 4.043-1.7908 5.9874 0.1537 1.3304 1.3304 1.5714 4.8454 1.5714 22.918 0 11.741-0.27314 22.059-0.60699 22.929-0.93038 2.4246-7.0494 2.0924-8.4136-0.45674zm20 0c-0.71852-1.3426-0.98659-9.223-0.78519-23.082 0.35131-24.175 0.23559-23.879 9.3477-23.879 12.193 0 20.458 7.0703 20.458 17.5 0 9.2562-8.3141 17.5-17.649 17.5-2.1785 0-2.3508 0.39717-2.3508 5.4182 0 7.4752-0.58949 8.5818-4.5718 8.5818-2.3555 0-3.6835-0.60849-4.4488-2.0385zm16.832-24c4.7348-4.4112 1.4366-12.961-5-12.961h-2.8114v15h2.8114c1.5463 0 3.7963-0.91753 5-2.039z"/>
</svg>
