<svg width="75" height="75" version="1.0" viewBox="-2 -1.5 75 75" xmlns="http://www.w3.org/2000/svg"><g fill="#333"><g transform="translate(-45.174 25.51)"><g transform="translate(45.987 -25.411)"><rect width="70" height="72.152" fill="#333" fill-opacity="0" stroke-width="2"/><svg width="70" height="72.152"><svg version="1.1" viewBox="-7.6770782e-05 0 123.2254 127.01275"><path d="m61.38 89.86c-1.74-0.15-3.48-0.44-5.21-0.45-10.33 0-20.66 0-31-0.08a6 6 0 0 1-3.73-1.5c-6.24-6.09-12.38-12.31-18.52-18.53-3.86-3.9-3.92-6.75-0.02-10.69 10.9-11 21.88-21.9 32.82-32.85 8.58-8.59 17.14-17.21 25.65-25.76l19.07 19.2c-4.69 4.65-9.53 9.43-14.35 14.24-9.48 9.46-18.92 19-28.46 28.39-1.59 1.57-1.72 2.48 0 4.16 7.45 7.24 14.75 14.67 22.08 22a24.26 24.26 0 0 1 1.58 1.91z" fill="#fbc64d"/><path d="m61.3 89.94a15.17 15.17 0 0 0 2.42-1.65q10.74-10.63 21.42-21.29c3-3 3-3.19 0-6.14q-10.14-10.18-20.31-20.35c-0.4-0.4-0.74-0.85-1.46-1.71 1.17-0.12 1.92-0.26 2.67-0.26 10.67 0 21.34 0 32 0.08a5.94 5.94 0 0 1 3.66 1.56c6.33 6.15 12.53 12.43 18.76 18.68 3.63 3.65 3.72 6.39 0.07 10.08q-15.53 15.72-31.24 31.32c-8.48 8.49-17 16.93-25.42 25.47-1.59 1.62-2.61 1.77-4.25 0.08-4.86-5-9.86-9.92-14.85-14.83-1.32-1.29-1.49-2.27 0-3.7 5.13-5 10.15-10.11 15.17-15.21a14.14 14.14 0 0 0 1.47-2.21z" fill="#258bfa"/></svg></svg></g></g></g></svg>
