<svg width="1065.9" height="1159.8" version="1.1" viewBox="0 0 1065.9 1159.8" xmlns="http://www.w3.org/2000/svg">
 <g transform="translate(-133.33 -86.667)">
  <path d="m566.51 1244.2c-21.82-7.1997-39.497-23.759-62.845-58.869-25.71-38.662-41.573-68.044-54.738-101.39-9.7346-24.655-18.26-60.242-18.26-76.219 0-4.6129-0.5-6.4605-1.6667-6.1587-0.91667 0.2371-7.9667 3.8407-15.667 8.0079-18.399 9.9575-31.989 14.423-46.819 15.384l-11.757 0.7617-7.3592-5.5562c-8.8849-6.7082-11.542-11.461-12.403-22.19-0.98014-12.21 1.852-26.033 7.7395-37.773 12.734-25.392 35.414-44.385 79.53-66.601 11.215-5.6476 20.393-10.591 20.396-10.985 3e-3 -0.39394-7.6708-3.1955-17.053-6.2257-71.259-23.016-120.01-46.238-158.91-75.703-21.878-16.568-39.927-32.619-68.246-60.688-36.229-35.91-41.464-44.688-41.833-70.134-0.20465-14.148-0.39308-15.061-4.2734-20.701-11.436-16.622-19.01-33.327-19.01-41.929 0-6.4478 3.209-12.1 8.3559-14.717 2.3709-1.2057 4.4365-2.2916 4.5902-2.4131 0.15368-0.12146-1.2603-4.9952-3.1422-10.83-4.5585-14.135-5.0976-30.878-1.1372-35.32 9.6155-10.785 27.073-8.061 46.667 7.2821l8 6.2644 0.84884-12.418c1.004-14.688 4.2988-29.119 12.641-55.364l6.125-19.27-5.3254-13.559c-17.243-43.902-23.51-76.539-23.469-122.23 0.0283-31.524 2.0756-47.873 9.689-77.373 9.647-37.38 27.348-83.432 47.743-124.21 18.872-37.735 26.78-46.414 42.288-46.414 9.9487 0 20.642 4.1068 45.08 17.313 33.626 18.172 66.865 40.108 88.714 58.547l9.6667 8.1581 0.0196-9.6758c0.0217-10.706 1.9926-16.141 6.0668-16.732 4.5616-0.66113 11.667 5.4057 17.247 14.726 2.9333 4.8997 5.652 8.9283 6.0415 8.9525 0.38954 0.0241 3.9063-6.8286 7.8151-15.228 8.6927-18.68 14.897-26.061 21.908-26.061 8.1466 0 9.6311 3.869 9.2583 24.13l-0.31054 16.879 4.1439 0.82877c2.2791 0.45583 10.302 0.82877 17.829 0.82877 29.327 0 91.829 4.6037 136.65 10.065 68.659 8.3664 126.32 20.587 179.42 38.024 13.248 4.3507 24.498 7.9104 25 7.9104s0.9123-1.7246 0.9123-3.8324c0-10.553 8.0576-22.834 14.981-22.834 3.1967 0 4.233 0.91926 6.3879 5.6667 1.4147 3.1167 2.5854 8.2167 2.6015 11.333 0.0393 7.6128 1.9121 7.396 14.308-1.6565 10.348-7.5573 18.477-10.796 23.274-9.2739 4.4678 1.418 2.8538 12.867-3.261 23.132-3.0078 5.0491-4.19 8.1322-3.1183 8.1322 0.94932 0 9.9917-1.5268 20.094-3.393 42.482-7.8474 113.63-17.154 163.4-21.374 36.25-3.0735 60.749-1.3096 86.023 6.1932 8.544 2.5364 10.16 3.4895 10.925 6.4418 0.4934 1.9057 0.903 15.165 0.9101 29.465 0.013 26.03-1.855 43.738-6.6805 63.333-9.7508 39.596-34.409 87.177-64.59 124.63-13.728 17.037-47.485 51.87-66.926 69.061-15.41 13.626-19.674 19.082-19.637 25.131 0.013 2.1134 1.8088 10.71 3.9912 19.104 2.1824 8.3935 4.6939 22.875 5.5812 32.182l1.6131 16.921 6.8965 0.81054c12.742 1.4976 24.136 5.862 30.09 11.525l5.5279 5.2585-0.8269 8.3545c-1.2035 12.158-2.717 16.394-10.665 29.843l-7.1413 12.085 25.822-1.2434 3.1183 4.3793c2.0006 2.8096 3.3284 6.9116 3.7042 11.444 1.0475 12.631-7.4067 22.226-31.068 35.261-4.4 2.424-10.507 6.0964-13.571 8.1608l-5.5705 3.7534 0.7545 7.3103c0.7387 7.1572 0.6238 7.4715-5.4819 15.002-17.71 21.844-42.683 38.039-100.8 65.369-51.615 24.274-85.661 41.239-91.625 45.658-5.6457 4.183-10.518 12.572-15.643 26.934-1.5439 4.3264-4.6036 8.4582-9.8736 13.333-7.6748 7.0997-12.497 9.8301-39.522 22.381-8.0649 3.7452-16.019 7.6976-17.675 8.783l-3.0118 1.9734 2.5584 5.0149c2.4763 4.8539 12.573 18.198 29.443 38.912 4.4793 5.5 9.9308 13.1 12.114 16.89l3.9702 6.8895 9.632 0.7299c5.2976 0.4015 17.129 1.0765 26.293 1.4999 25.396 1.1736 45.449 6.2852 53.825 13.72 4.988 4.4277 8.8202 14.996 8.8342 24.362 0.0363 24.426-13.062 38.166-44.654 46.839-9.2655 2.5437-14.082 2.9326-36.667 2.9602-24.41 0.03-26.617-0.1766-36.086-3.3759l-10.086-3.4077-4.5809 3.2074c-29.332 20.537-74.934 41.846-143.7 67.151-15.883 5.8443-30.414 11.231-32.291 11.97l-3.4126 1.3442 3.124 9.3145c8.6019 25.648 3.8001 50.136-11.594 59.126-6.5995 3.8544-25.903 4.3782-36.195 0.9823zm27.013-13.661c3.9759-2.0855 9.0496-9.241 10.59-14.936 1.9767-7.3063 0.69964-19.069-3.111-28.655l-3.0284-7.6179-9.6823 0.4727c-10.158 0.496-13.625-0.8017-13.625-5.1001 0-2.9542 7.1819-6.1201 19.73-8.6974 5.3515-1.0992 14.848-4.117 21.103-6.7063 6.2551-2.5893 14.368-5.3502 18.029-6.1354 3.661-0.7851 12.765-4.2807 20.23-7.7678 7.4657-3.4872 27.374-11.913 44.241-18.724 16.867-6.8112 35.587-14.647 41.601-17.413 15.968-7.3441 35.852-19.382 41.738-25.267 8.3668-8.3668 9.7875-8.7441 18.466-4.9044 10.337 4.5736 28.665 6.8121 47.9 5.8501 42.746-2.1378 65.942-19.896 58.936-45.118-1.1431-4.1154-2.3904-5.2938-8.2899-7.8317-15.366-6.61-28.525-8.3965-64.35-8.736-39.714-0.3763-36.206-0.1318-37.149-2.588-1.2712-3.3128 0.47051-5.7894 5.1601-7.3371 9.058-2.9894 8.8016-3.8484-6.6054-22.127-13.773-16.34-24.673-31.322-29.23-40.175l-2.2163-4.306-6.9008 2.72c-7.1842 2.8318-13.059 2.532-13.059-0.6664 0-1.0124 3.3839-4.9335 7.5198-8.7135 7.27-6.6444 13.685-10.125 49.051-26.616 14.851-6.9246 27.218-15.659 32.671-23.075 11.421-15.531 12.425-42.639 1.9244-51.962-9.0443-8.0295-34.284-4.7506-52.087 6.7668-4.2603 2.7561-14.848 11.569-23.529 19.584-20.24 18.689-28.359 25.431-34.498 28.648-6.0686 3.1798-6.3864 3.1891-6.3864 0.18721 0-5.0972 7.3614-16.78 17.136-27.196 24.16-25.745 60.699-45.159 85.456-45.405 19.506-0.19408 29.351 7.9442 35.522 29.364 0.32687 1.1345 7.4074-1.7547 21.52-8.7812 11.568-5.7596 29.433-14.302 39.699-18.983 29.017-13.231 84.143-40.778 96.393-48.17 13.221-7.9777 26.106-19.561 29.788-26.776 1.4697-2.8808 2.3885-5.5216 2.0417-5.8684s-2.9386 0.53019-5.7597 1.9488c-8.1721 4.1094-14.998 5.9287-18.731 4.9919l-3.4599-0.86838 5.1974-5.3728c6.5367-6.7572 25.774-19.604 46.531-31.073 15.842-8.7538 28.667-19.451 28.667-23.911 0-3.8965-8.394-4.0141-21.345-0.29904-13.871 3.979-20.792 4.362-25.041 1.3859l-2.9795-2.0869 8.5183-9.767c14.446-16.564 20.731-27.029 24.177-40.258 1.8271-7.015 1.8016-7.8145-0.3248-10.164-6.0828-6.7214-15.102-7.9978-39.159-5.5416-19.698 2.0111-27.118 1.6524-33.512-1.6203-4.3497-2.2261-4.6403-4.5137-0.9927-7.8147 2.0039-1.8135 6.0673-2.6828 16.214-3.4688 16.95-1.3129 18.276-2.3007 15.292-11.391-1.1678-3.557-3.036-10.856-4.1516-16.221-2.1527-10.351-8.6952-54.616-8.6952-58.829 0-1.6997 1.6432-3.0705 5.1435-4.2908 3.9266-1.3689 13.315-10.153 39.684-37.127 18.997-19.433 40.183-42.233 47.08-50.667 45.342-55.444 65.265-109.06 65.891-177.33l0.2016-22-12.667-1.8063c-8.0567-1.1489-25.769-1.8242-48.667-1.8554-39.542-0.0539-59.654 1.6459-121.33 10.255-18.333 2.5588-41.433 5.6272-51.333 6.8185-13.878 1.6701-20.739 3.2357-29.962 6.8372-12.254 4.7851-18.52 5.2242-22.883 1.6034-2.9613-2.4577-1.0829-8.6517 5.6214-18.536 10.186-15.018 7.5082-15.251-8.6605-0.75289-14.175 12.71-16.029 11.949-16.837-6.9163-0.23552-5.4978-1.0364-10.604-1.7796-11.347-1.8526-1.8526-2.751 2.6067-3.1632 15.701l-0.3358 10.667-4.9654-0.28946c-2.731-0.1592-18.631-4.7736-35.333-10.254-80.157-26.302-185.06-42.466-308.34-47.51-24.323-0.99526-35.641-1.9374-36.385-3.0287-0.5934-0.87121-0.69453-7.9683-0.22474-15.771 0.96665-16.056 0.1809-20.913-2.9611-18.305-3.067 2.5454-6.498 10.239-9.1382 20.493-2.532 9.833-8.1939 23.333-9.7856 23.333-2.572 0-7.6554-5.1789-12.906-13.148-11.327-17.193-12.246-17.396-9.311-2.057 2.2757 11.893 2.5714 21.598 0.74587 24.484-1.8547 2.9322-12.925-5.2543-27.395-20.259-18.127-18.796-49.365-40.017-85.515-58.092-21.553-10.776-46.3-20.88-48.766-19.91-2.2912 0.90089-17.353 27.761-33.073 58.983-26.794 53.212-41.892 99.913-46.784 144.7-3.2714 29.955-8e-3 77.794 7.4284 108.88 1.9308 8.0721 11.072 37.386 12.309 39.47 0.34372 0.57952 5.3402-8.5526 11.103-20.294 13.728-27.968 28.761-53.763 49.007-84.093l16.466-24.667 0.39601-32.667c0.2178-17.967 0.81586-34.767 1.329-37.333 0.8896-4.4497 0.2147-5.5654-14.518-24-20.649-25.837-24.434-34.217-16.582-36.709 3.7828-1.2006 8.301 2.1956 15.585 11.714 6.3108 8.2473 18.821 23.943 39.316 49.328 6.0687 7.5167 12.043 15.113 13.276 16.882l2.2421 3.215 5.7168-3.7832c3.1442-2.0808 11.197-8.1464 17.896-13.479 18.255-14.533 21.521-16.501 27.381-16.501h5.1744l-2.5895 5c-3.3332 6.4359-15.279 17.907-28.798 27.655-5.8667 4.23-12.382 9.2631-14.478 11.185-4.4055 4.0388-47.752 57.899-53.782 66.827-3.7188 5.5058-15.962 26.416-45.279 77.333-26.027 45.203-41.343 90.478-42.485 125.59-0.25491 7.8394-1.1249 15.489-1.9334 17-2.8677 5.3584-11.483 2.5212-25.92-8.5356-10.519-8.0562-17.364-11.384-23.414-11.384h-4.0428v9.95c0 13.723 3.2816 21.814 17.497 43.142 14.132 21.203 14.826 23.872 5.5534 21.354-2.6836-0.72848-8.1933-5.1365-14.754-11.804-5.7593-5.8529-11.266-10.642-12.237-10.642-2.8096 0-0.79109 13.81 3.2154 21.999 1.8893 3.8615 7.9724 12.641 13.518 19.511 12.416 15.379 17.296 24.204 14.615 26.429-1.4 1.1619-3.036 1.0286-6.829-0.55612-2.7433-1.1462-5.2814-1.7906-5.6401-1.4319-1.1998 1.1998 6.4465 20.18 11.866 29.453 2.9462 5.0416 8.5722 13.146 12.502 18.011 8.1383 10.073 46.724 47.373 62.694 60.605 22.943 19.011 56.188 39.566 90.667 56.061 37.693 18.032 108.9 44.715 127.82 47.896 2.8393 0.47749 6.6754 2.3924 8.5519 4.2689 3.2158 3.2158 3.2673 3.4789 0.93611 4.7835-1.7897 1.0016-5.0592 0.73498-11.911-0.9713l-9.4444-2.3518-6.922 4.0813c-3.8071 2.2447-16.323 9.2414-27.813 15.548-11.49 6.3067-26.064 14.864-32.385 19.016-15.092 9.9114-34.583 29.28-39.311 39.064-6.7653 13.999-7.6909 34.54-1.9796 43.932 2.6362 4.3349 2.6842 4.3505 10.889 3.5517 16.783-1.6338 29.73-6.3539 53.574-19.531l13.333-7.3684 0.75886-8.6667c0.41736-4.7667 1.4811-10.003 2.3639-11.636 1.4317-2.6487 5.4215-5.6972 7.4563-5.6972 0.41488 0 0.76472 7.95 0.77742 17.667 0.0703 53.737 12.215 95.525 46.028 158.37 33.493 62.254 57.974 90.058 85.227 96.797 6.6914 1.6546 15.407 1.2269 19.578-0.9607zm-136.61-513.15c-6.4254-2.0645-12.496-7.6973-16.109-14.948-6.5422-13.129-3.9482-32.327 5.3613-39.68l3.8342-3.0283 0.47696 3.1331c0.26233 1.7232-0.27656 7.1441-1.1975 12.047-1.3505 7.1885-1.3454 10.089 0.0263 14.988 5.6579 20.208 30.332 19.726 40.556-0.7927 2.5311-5.0791 3.4712-9.0452 3.4712-14.644v-7.6778l-5-0.90736c-6.0863-1.1045-14.569-5.1805-18.793-9.0306-4.7335-4.3139-6.8733-9.3862-6.8733-16.293 0-8.0547 3.9216-14.449 11.111-18.117 6.4816-3.3066 23.102-4.5825 37.416-2.872 7.6964 0.91969 9.6196 1.6707 11.813 4.6129 3.7424 5.0195 4.5101 14.543 1.754 21.759-2.5779 6.75-10.809 15.594-16.836 18.091-3.8835 1.6086-4.0459 1.9743-3.1819 7.1652 2.1277 12.784 11.46 23.237 23.998 26.882 13.804 4.0129 25.287-0.20976 30.926-11.372 3.3087-6.5495 3.725-12.962 1.5909-24.506-0.77502-4.1924-1.0167-8.859-0.53706-10.37 0.84312-2.6564 1.0015-2.6236 4.7738 0.9905 6.8997 6.6103 9.9595 24.459 6.2916 36.701-3.8693 12.915-17.344 21.563-33.786 21.685-13.447 0.10013-22.271-3.305-30.883-11.917l-6.9684-6.9684-1.3127 3.7657c-1.8479 5.301-11.725 15.631-18.013 18.839-5.9379 3.0293-18.212 4.2938-23.91 2.4632zm49.434-66.892c7.185-3.4782 10.637-9.544 8.7147-15.312-1.05-3.1499-2.3-4.0038-7.167-4.8959-6.2341-1.1426-19.442-0.2374-24.479 1.6778-1.6512 0.62776-3.9952 2.1345-5.209 3.3483-2.2708 2.2707-2.9475 9.4541-1.156 12.272 3.8393 6.0386 19.6 7.604 29.297 2.9099zm164.62-2.8054c-12.744-6.1416 4.9419-48.194 30.348-72.161 18.288-17.252 33.8-25.355 51.729-27.021 42.189-3.9211 77.272 29.414 81.083 77.044 1.0675 13.341-1.1117 19.701-7.5934 22.163-10.713 4.069-19.863-5.1991-25.115-25.438-5.1455-19.83-9.2625-28.841-16.64-36.417-9.1856-9.4337-18.452-12.34-31.992-10.034-5.0649 0.86244-13.083 3.4171-17.818 5.6771-15.544 7.4187-34.688 29.491-41.261 47.574-1.682 4.627-3.9517 10.141-5.0438 12.252-3.769 7.2885-10.644 9.76-17.696 6.3614zm-402.97-37.414c-9.184-4.6336-8.011-26.707 2.6363-49.612 6.2577-13.462 15.251-25.379 24.589-32.583 32.433-25.022 67.813-5.6506 85.839 46.998 4.6447 13.566 6.6936 27.056 5.0837 33.471-0.68592 2.7329-1.6805 3.448-4.7956 3.448-6.4644 0-12.448-7.246-16.709-20.236-9.6507-29.416-25.26-47.764-40.633-47.764-10.917 0-23.517 8.3062-29.626 19.53-1.946 3.5755-5.1687 13.094-7.1614 21.152-4.3152 17.45-7.4849 24.31-12.031 26.038-4.0354 1.5343-3.1708 1.5873-7.192-0.44147zm745.57-143.38c-2.8049-2.8049-8.5089-11.655-12.676-19.667-4.1666-8.0118-11.521-21.767-16.344-30.567-15.144-27.634-43.326-84.74-42.488-86.096 1.067-1.7264 14.854-8.6352 23.604-11.828 19.369-7.0676 51.858-14.106 86.21-18.677 39.87-5.3051 66.662-2.0514 67.874 8.2426 0.8196 6.9644-2.3681 7.2864-41.306 4.1721-5.6245-0.44985-12.299-0.42905-14.832 0.0463-4.3277 0.81189-4.7447 1.366-6.8988 9.1685-7.2848 26.387-24.423 65.22-40.595 91.983l-9.4742 15.679 7.3469 14.009c6.3109 12.034 7.3469 15.04 7.3469 21.321 0 4.0218-0.6 7.3124-1.3333 7.3124-0.7334 0-3.6283-2.2949-6.4332-5.0998zm6.5638-91.99c14.548-29.984 19.06-41.467 20.398-51.91 1.0705-8.356 1.6381-8.2084-16.903-4.3935-27.136 5.5834-65.581 16.564-64.707 18.482 0.22818 0.5012 9.051 18.188 19.606 39.304l19.191 38.393 4.6354-6.3932c2.5495-3.5162 10.55-18.584 17.779-33.483zm-696.23-80.753c4.4534-5.7802 8.0971-11.246 8.0971-12.146 0-2.203-16.257-19.344-18.346-19.344-1.2421 0-1.6537 4.9504-1.6537 19.891 0 19.631 0.67474 25.33 2.7466 23.199 0.58254-0.59929 4.7029-5.8189 9.1563-11.599z" stroke-width="1.3333"/>
 </g>
</svg>
