<svg id="Слой_1" data-name="Слой 1" xmlns="http://www.w3.org/2000/svg" viewBox="0 0 682.63 849.46"><defs><style>.cls-1{fill:#fff;}.cls-2{stroke:#fff;stroke-miterlimit:10;}</style></defs><path d="M1156.18,634.37c-39.09-67.78-96.11-105.78-174.32-116.17l-8-1.07,3.88-7C1014,444.41,1055,370,1158.94,329.27l1.27-.5,1.36.16c52.13,6,95.39,28.18,128.58,66,27.17,31,46.54,72.45,54.56,116.83l.2,1.14-.27,1.13c-14.6,60.27-90.73,88.6-151.9,111.36-10.52,3.92-20.46,7.61-29.76,11.33l-4.42,1.77Z" transform="translate(-667.9 -206.72)"/><path class="cls-1" d="M1160.94,334.39C1271,347,1325,433.48,1339.29,512.74,1323,580,1225,606,1160.94,631.63c-37.93-65.78-95.37-107.86-178.35-118.89,38.63-70.06,78.77-139.34,178.35-178.35m-1.46-11.24-2.55,1c-46.53,18.22-84.56,44.55-116.27,80.49-27.2,30.83-46.75,64.79-67.7,102.79l-7.78,14.1,16,2.12c76.4,10.15,132.09,47.27,170.27,113.47l4.77,8.26,8.85-3.54c9.23-3.69,19.14-7.38,29.63-11.28,30.53-11.37,65.15-24.25,93.79-41.65,34.49-20.95,54.62-45,61.53-73.58l.55-2.26-.41-2.28a265.15,265.15,0,0,0-19.24-62.11,230.87,230.87,0,0,0-36.59-57.36,199.77,199.77,0,0,0-55.87-44.59c-22.92-12.27-48.56-20.1-76.23-23.27l-2.71-.31Z" transform="translate(-667.9 -206.72)"/><circle cx="493.04" cy="95.84" r="90.34"/><path class="cls-1" d="M1160.94,217.72a84.85,84.85,0,1,1-84.84,84.84,84.83,84.83,0,0,1,84.84-84.84m0-11a95.85,95.85,0,1,0,95.84,95.84,95.94,95.94,0,0,0-95.84-95.84Z" transform="translate(-667.9 -206.72)"/><path d="M856.32,637.13c-43.35,0-88.35-12.68-123.48-34.79-38.28-24.09-59.39-55.91-59.44-89.59v-.46l.07-.46c9-53.52,28.88-94.15,60.78-124.19C763.17,360.4,803,341.23,856,329l1.66-.38,1.58.62c52.39,20.6,94.18,46.11,124.21,75.82,30.92,30.59,50.28,66.48,57.55,106.68l1,5.71-5.76.72c-80.26,10.06-137.24,48-174.21,116l-1.55,2.86Z" transform="translate(-667.9 -206.72)"/><path class="cls-1" d="M857.25,334.39c102.8,40.42,164,99.09,178.35,178.35C951.11,523.34,893.44,565,857.25,631.63h-.93c-85,0-177.32-50.88-177.42-118.89C697,405,759,357,857.25,334.39m.86-11.48-3.33.76c-26.39,6.07-49,13.6-69,23-21.63,10.17-39.73,22.25-55.32,36.94-32.81,30.9-53.23,72.54-62.43,127.29l-.15.91v.93c.05,35.64,22.08,69.11,62,94.24,36,22.64,82.05,35.63,126.41,35.63h1l6.51,0,3.11-5.72C903,570.52,958.6,533.49,1037,523.66l11.52-1.45-2.06-11.42c-7.47-41.33-27.35-78.21-59.09-109.61-30.56-30.24-73-56.15-126.06-77l-3.17-1.24Z" transform="translate(-667.9 -206.72)"/><circle cx="857.25" cy="302.56" r="90.34" transform="translate(-302.07 860.65) rotate(-76.72)"/><path class="cls-1" d="M857.25,217.72a84.85,84.85,0,1,1-84.84,84.84,84.83,84.83,0,0,1,84.84-84.84m0-11a95.85,95.85,0,1,0,95.84,95.84,95.94,95.94,0,0,0-95.84-95.84Z" transform="translate(-667.9 -206.72)"/><path d="M1010.29,807.5c-38.25,0-71.38-7.32-98.49-21.77A148.77,148.77,0,0,1,856,734.26c-26.63-41.39-29.57-87.18-29.6-105v-.2l0-.21c3.4-46.43,21.83-83.84,56.32-114.38,34.86-30.86,83-52,125.51-68.69l2-.79,2,.79c57.52,22.62,97.62,45.47,126.21,71.93,33.16,30.69,51.34,67,55.6,111l0,.25v.24c.19,24.32-4.13,85.68-48.16,130C1114.25,791.29,1068.6,807.5,1010.29,807.5Z" transform="translate(-667.9 -206.72)"/><path class="cls-1" d="M1010.29,451C1113.08,491.37,1180,540,1188.64,629.3,1189,676,1171.57,802,1010.29,802S832,671,831.93,629.3C839,533,910.71,490,1010.29,451m0-11.82-4,1.58C963.32,457.53,914.63,479,879.13,510.4S824.48,580.57,821,628.5l0,.41v.41c0,18.25,3.06,65.3,30.47,107.92a154.28,154.28,0,0,0,57.81,53.35C937.13,805.46,971.13,813,1010.29,813c59.83,0,106.8-16.76,139.6-49.81,45.48-45.84,49.94-109,49.75-134v-.49l0-.49c-4.4-45.41-23.15-82.87-57.35-114.52-29.1-26.93-69.75-50.13-127.93-73l-4-1.58Z" transform="translate(-667.9 -206.72)"/><path d="M1010.29,509.47a90.35,90.35,0,1,1,90.34-90.35A90.45,90.45,0,0,1,1010.29,509.47Z" transform="translate(-667.9 -206.72)"/><path class="cls-1" d="M1010.29,334.28a84.85,84.85,0,1,1-84.85,84.84,84.84,84.84,0,0,1,84.85-84.84m0-11a95.85,95.85,0,1,0,95.84,95.84,96,96,0,0,0-95.84-95.84Z" transform="translate(-667.9 -206.72)"/><circle cx="342.08" cy="452.72" r="52.17"/><path class="cls-2" d="M914.56,1016.16s12-68-25-93c-24.29-16.42-121-50-134-62s-51.73-80.11-61-122c-21-101,1-99,1-99s7-20,18-9c7,21,9,49,9,49s20.65,94,73,122c54.57,29.24,82,41,82,41s-63-28-82-50-27-53-3-37,32,34,56,40,74,29,84,43,38,52,31,83,20,133,20,133Z" transform="translate(-667.9 -206.72)"/><path class="cls-2" d="M1080.42,1016.12s-12-68,25-93c24.29-16.42,121-50,134-62s51.73-80.11,61-122c21-101-1-99-1-99s-7-20-18-9c-7,21-9,49-9,49s-20.65,94-73,122c-54.58,29.24-82,41-82,41s63-28,82-50,27-53,3-37-32,34-56,40-74,29-84,43-38,52-31,83-20,133-20,133Z" transform="translate(-667.9 -206.72)"/></svg>