<svg id="Слой_1" data-name="Слой 1" xmlns="http://www.w3.org/2000/svg" viewBox="0 0 707.6 648.78"><defs><style>.cls-1{fill:#fff;}.cls-2{fill:#39b54a;stroke-width:20px;}.cls-2,.cls-3{stroke:#fff;stroke-miterlimit:10;}.cls-3{fill:none;stroke-width:28px;}</style></defs><path d="M1137.18,531.37c-39.09-67.78-96.11-105.78-174.32-116.17l-8-1.07,3.88-7C995,341.41,1036,267,1139.94,226.27l1.27-.5,1.36.16c52.13,6,95.39,28.18,128.58,66,27.17,31,46.54,72.45,54.56,116.83l.2,1.14-.27,1.13c-14.6,60.27-90.73,88.6-151.9,111.36-10.52,3.92-20.46,7.61-29.76,11.33l-4.42,1.77Z" transform="translate(-648.9 -103.72)"/><path class="cls-1" d="M1141.94,231.39C1252,244,1306,330.48,1320.29,409.74,1304,477,1206,503,1141.94,528.63c-37.93-65.78-95.37-107.86-178.35-118.89,38.63-70.06,78.77-139.34,178.35-178.35m-1.46-11.24-2.55,1c-46.53,18.22-84.56,44.55-116.27,80.49-27.2,30.83-46.75,64.79-67.7,102.79l-7.78,14.1,16,2.12c76.4,10.15,132.09,47.27,170.27,113.47l4.77,8.26,8.85-3.54c9.23-3.69,19.14-7.38,29.63-11.28,30.53-11.37,65.15-24.25,93.79-41.65,34.49-21,54.62-45,61.53-73.58l.55-2.26-.41-2.28a265.15,265.15,0,0,0-19.24-62.11,230.87,230.87,0,0,0-36.59-57.36,199.77,199.77,0,0,0-55.87-44.59c-22.92-12.27-48.56-20.1-76.23-23.27l-2.71-.31Z" transform="translate(-648.9 -103.72)"/><circle cx="493.04" cy="95.84" r="90.34"/><path class="cls-1" d="M1141.94,114.72a84.85,84.85,0,1,1-84.84,84.84,84.83,84.83,0,0,1,84.84-84.84m0-11a95.85,95.85,0,1,0,95.84,95.84,95.94,95.94,0,0,0-95.84-95.84Z" transform="translate(-648.9 -103.72)"/><path d="M837.32,534.13c-43.35,0-88.35-12.68-123.48-34.79-38.28-24.09-59.39-55.91-59.44-89.59v-.46l.07-.46c9-53.52,28.88-94.15,60.78-124.19C744.17,257.4,784,238.23,837,226l1.66-.38,1.58.62c52.39,20.6,94.18,46.11,124.21,75.82,30.92,30.59,50.28,66.48,57.55,106.68l1,5.71-5.76.72c-80.26,10.06-137.24,48-174.21,116.05l-1.55,2.86Z" transform="translate(-648.9 -103.72)"/><path class="cls-1" d="M838.25,231.39c102.8,40.42,164,99.09,178.35,178.35C932.11,420.34,874.44,462,838.25,528.63h-.93c-85,0-177.32-50.88-177.42-118.89C678,302,740,254,838.25,231.39m.86-11.48-3.33.76c-26.39,6.07-49,13.6-69,23-21.63,10.17-39.73,22.25-55.32,36.94-32.81,30.9-53.23,72.54-62.43,127.29l-.15.91v.93c.05,35.64,22.08,69.11,62,94.24,36,22.64,82.05,35.63,126.41,35.63h1l6.51,0,3.11-5.72C884,467.52,939.6,430.49,1018,420.66l11.52-1.45-2.06-11.42c-7.47-41.33-27.35-78.21-59.09-109.61-30.56-30.24-73-56.15-126.06-77l-3.17-1.24Z" transform="translate(-648.9 -103.72)"/><circle cx="838.25" cy="199.56" r="90.34" transform="translate(-197.46 865.82) rotate(-76.72)"/><path class="cls-1" d="M838.25,114.72a84.85,84.85,0,1,1-84.84,84.84,84.83,84.83,0,0,1,84.84-84.84m0-11a95.85,95.85,0,1,0,95.84,95.84,95.94,95.94,0,0,0-95.84-95.84Z" transform="translate(-648.9 -103.72)"/><path d="M991.29,650.69c-151.8,0-183.77-67.64-183.86-124.38v-.2l0-.21c3.4-46.43,21.83-83.84,56.32-114.38,34.86-30.86,83-52,125.51-68.69l2-.79,2,.79c57.52,22.62,97.62,45.47,126.21,71.93,33.16,30.69,51.34,67,55.6,111l0,.25v.24c.26,33.72-9.25,59.82-29.07,79.79C1116.68,635.67,1064.61,650.69,991.29,650.69Z" transform="translate(-648.9 -103.72)"/><path class="cls-1" d="M991.29,348C1094.08,388.37,1161,437,1169.64,526.3c.36,46.7-17.07,118.89-178.35,118.89S813,568,812.93,526.3C820,430,891.71,387,991.29,348m0-11.82-4,1.58C944.32,354.53,895.63,376,860.13,407.4S805.48,477.57,802,525.5l0,.41v.41c.06,33.75,10.8,61.62,31.93,82.82,31.1,31.22,84.07,47.05,157.43,47.05,39.49,0,73.25-4.33,100.35-12.86,24.31-7.65,43.93-18.89,58.34-33.4,20.9-21.07,30.93-48.45,30.66-83.71v-.49l0-.49c-4.4-45.41-23.15-82.87-57.35-114.52-29.1-26.93-69.75-50.13-127.93-73l-4-1.58Z" transform="translate(-648.9 -103.72)"/><path d="M991.29,406.46a90.34,90.34,0,1,1,90.34-90.34A90.44,90.44,0,0,1,991.29,406.46Z" transform="translate(-648.9 -103.72)"/><path class="cls-1" d="M991.29,231.28a84.85,84.85,0,1,1-84.85,84.84,84.84,84.84,0,0,1,84.85-84.84m0-11a95.85,95.85,0,1,0,95.84,95.84,96,96,0,0,0-95.84-95.84Z" transform="translate(-648.9 -103.72)"/><circle class="cls-2" cx="553.1" cy="494.28" r="144.5"/><polyline class="cls-3" points="465.1 487.28 521.1 552.28 644.1 464.28"/></svg>