<svg id="Слой_1" data-name="Слой 1" xmlns="http://www.w3.org/2000/svg" viewBox="0 0 671.05 844.33"><defs><style>.cls-1{fill:#0071bc;}.cls-2{fill:#fff;}.cls-3{fill:#2e3192;stroke:#fff;stroke-miterlimit:10;}.cls-4{fill:none;stroke:#ff7bac;stroke-linecap:round;stroke-linejoin:round;stroke-width:3px;}</style></defs><path class="cls-1" d="M1162.94,582.63c-37.93-65.78-95.37-107.86-178.35-118.89,38.63-70.06,78.77-139.34,178.35-178.35C1273,298,1327,384.48,1341.29,463.74,1325,531,1227,557,1162.94,582.63Z" transform="translate(-676.13 -162.84)"/><path class="cls-2" d="M1162.76,583.15c-2.59-3.78-5.37-7.66-8.1-11.73l-8.26-11.13-8.74-10.7-9.28-10.19a227.93,227.93,0,0,0-91.29-58.35l-6.48-2.13-3.24-1.07-3.3-.88-6.6-1.76c-2.2-.59-4.39-1.21-6.63-1.62l-6.69-1.43-3.34-.72c-1.11-.25-2.22-.48-3.36-.64L984,468.57l-7-1.16,3.41-6c10.63-18.75,21.59-37.47,33.93-55.34a399,399,0,0,1,40.82-50.63,309.66,309.66,0,0,1,49.57-41.92,334.5,334.5,0,0,1,57.26-30.77l.59-.26.78.08a226.77,226.77,0,0,1,33.93,5.79c2.78.73,5.59,1.39,8.33,2.3l4.13,1.27,2.07.65,2,.73,4.07,1.49c1.35.52,2.72,1,4,1.56,2.66,1.14,5.34,2.23,8,3.42a187.51,187.51,0,0,1,56.44,40.11,219.72,219.72,0,0,1,39.54,56.94A251,251,0,0,1,1347,462.72l.22,1.24-.29,1.14a89.1,89.1,0,0,1-12,27A114.5,114.5,0,0,1,1315.69,514a163.41,163.41,0,0,1-23,17,269.28,269.28,0,0,1-24.83,13.53,515.21,515.21,0,0,1-51.95,20.87c-8.77,3.08-17.6,6-26.39,8.91l-13.21,4.37-6.59,2.21C1167.41,581.69,1165,582.45,1162.76,583.15Zm.36-1c2.09-1,4-2,6-2.84l6.39-2.78,12.83-5.41L1214,560.44q12.83-5.34,25.4-11.08c8.39-3.83,16.66-7.86,24.73-12.19,16.15-8.59,31.61-18.5,44.63-30.72s23-27.23,26.93-44.06l-.07,2.38a261.61,261.61,0,0,0-20.34-62.9,213.2,213.2,0,0,0-36.63-54.72A186.07,186.07,0,0,0,1226,307.74c-2.47-1.24-5-2.37-7.49-3.56s-5.1-2.13-7.64-3.22l-1.92-.8-2-.71-3.91-1.42c-2.59-1-5.26-1.76-7.9-2.59a217.15,217.15,0,0,0-32.6-7.21l1.36-.18a283.6,283.6,0,0,0-57.4,28.38,259.8,259.8,0,0,0-25.66,19.26,244.33,244.33,0,0,0-23,22.41c-14.42,15.84-26.66,33.51-37.76,51.79s-21.16,37.23-31.33,56.2l-3.62-7.17,14,2.14c1.17.16,2.32.4,3.48.66l3.46.74,6.93,1.49c2.31.46,4.58,1.13,6.86,1.77l6.83,1.91,3.41,1,3.36,1.15,6.71,2.31a221.19,221.19,0,0,1,50.44,25.74c2,1.26,3.86,2.72,5.74,4.16l5.64,4.29c1.92,1.38,3.64,3,5.44,4.52l5.36,4.63c.91.75,1.76,1.57,2.59,2.4l2.53,2.47,5,5c3.23,3.42,6.32,7,9.47,10.44,3,3.63,5.87,7.34,8.78,11l8.09,11.48,7.37,11.91Z" transform="translate(-676.13 -162.84)"/><circle class="cls-1" cx="486.81" cy="90.72" r="84.84"/><path class="cls-2" d="M1248.33,253.56a99.28,99.28,0,0,1-5.71,33,93.57,93.57,0,0,1-7.13,15.47,87.5,87.5,0,0,1-10.08,14,79.83,79.83,0,0,1-62.47,27,84.61,84.61,0,0,1-17.31-2.39,87.58,87.58,0,0,1-16.32-5.84,96.59,96.59,0,0,1-46.49-48c-.53-1.31-1.12-2.61-1.62-3.94s-1-2.66-1.42-4-.9-2.71-1.27-4.08-.76-2.75-1.07-4.14a92.39,92.39,0,0,1-2.35-17,85.23,85.23,0,0,1,24.18-63.67,89.23,89.23,0,0,1,29-20,86.63,86.63,0,0,1,69.18.39A81.94,81.94,0,0,1,1225.52,191a90.57,90.57,0,0,1,17.18,29.54A98,98,0,0,1,1248.33,253.56Zm-1.1,0a74.37,74.37,0,0,0-7.26-31.9,79.65,79.65,0,0,0-19.62-25.51,89.63,89.63,0,0,0-27-16.06,83.72,83.72,0,0,0-60.7.39,80.87,80.87,0,0,0-26.05,16.77,83.62,83.62,0,0,0-18,25.53c-.52,1.21-1.09,2.4-1.56,3.63s-1,2.46-1.38,3.72-.87,2.5-1.23,3.77-.75,2.55-1,3.84a81.37,81.37,0,0,0-2.3,15.82,77.06,77.06,0,0,0,5.16,31.76,75.1,75.1,0,0,0,45.36,43.83,81.51,81.51,0,0,0,15.51,3.81,88.11,88.11,0,0,0,15.8.86,92.38,92.38,0,0,0,57.52-22.74,80.2,80.2,0,0,0,19.59-25.58A73.67,73.67,0,0,0,1247.23,253.56Z" transform="translate(-676.13 -162.84)"/><path class="cls-1" d="M859.25,582.63C774,583,681,532,680.9,463.74,699,356,761,308,859.25,285.39c102.8,40.42,164,99.09,178.35,178.35C953.11,474.34,895.44,516,859.25,582.63Z" transform="translate(-676.13 -162.84)"/><path class="cls-2" d="M859.53,583.1c-2.45.11-5,.25-7.59.33s-4.93,0-7.41,0c-4.91-.13-9.83-.35-14.74-.8a231.79,231.79,0,0,1-29.23-4.55,219.7,219.7,0,0,1-55.75-20.43,182.76,182.76,0,0,1-25.2-16.26,136,136,0,0,1-21.8-21A98.15,98.15,0,0,1,682,494.15a80.41,80.41,0,0,1-5.85-30.4v-.49l.06-.31,1.67-8.43c.54-2.81,1.26-5.59,1.88-8.39s1.44-5.55,2.19-8.32l1.15-4.15,1.3-4.1a223.56,223.56,0,0,1,12.72-32,190.35,190.35,0,0,1,40.45-55,195.19,195.19,0,0,1,26.82-21.15,242.51,242.51,0,0,1,29.81-16.61,366,366,0,0,1,64.34-22.53l.9-.23,1,.37c20.76,7.67,41.24,16.38,60.76,27.14a309.78,309.78,0,0,1,55.07,38.11,234,234,0,0,1,23.74,24,198,198,0,0,1,19.83,27.53,186.16,186.16,0,0,1,14.61,30.71,189.21,189.21,0,0,1,8.8,32.83l1,5.86-6,.85-13.57,1.92-1.7.24-1.68.33-3.35.66-6.72,1.3a252.44,252.44,0,0,0-26.42,7l-3.27,1c-1.1.31-2.14.78-3.21,1.16L972,485.51c-4.32,1.47-8.4,3.5-12.58,5.31l-3.13,1.39c-1,.45-2,1-3,1.55l-6.06,3.16-3,1.59c-1,.55-2,1.17-2.94,1.76l-5.85,3.54A213.74,213.74,0,0,0,893,538.6c-3.09,3.4-6.1,6.89-9.18,10.33l-8.6,10.87-8,11.35Zm-.56-1,6.27-12.23,7.2-12.06,8-11.62c2.88-3.7,5.7-7.48,8.68-11.13l4.68-5.3,2.34-2.65c.78-.89,1.55-1.78,2.41-2.6l5-5c1.69-1.65,3.29-3.4,5.12-4.9L914,510l2.68-2.33c.88-.8,1.86-1.47,2.79-2.2l5.65-4.33,2.83-2.16,2.95-2a219.68,219.68,0,0,1,50.71-25.69,262.36,262.36,0,0,1,27.32-8.06l7-1.51,3.48-.75,1.74-.38,1.76-.28,14-2.25-4.93,6.7a187.15,187.15,0,0,0-22.25-59.61,198.54,198.54,0,0,0-18.37-26.23,231.65,231.65,0,0,0-22.25-23.28c-15.91-14.54-33.75-27-52.48-38.05-2.36-1.34-4.69-2.74-7.06-4.07l-7.15-4-7.23-3.8c-2.42-1.26-4.88-2.45-7.31-3.69-9.76-4.87-19.71-9.4-29.79-13.68l1.9.15c-22,4.53-43.69,10.6-64.2,19.71a207.67,207.67,0,0,0-29.55,15.94,165.55,165.55,0,0,0-26.17,20.94c-1.95,2-4,3.93-5.81,6s-3.76,4.13-5.49,6.32l-2.65,3.24c-.87,1.09-1.68,2.23-2.52,3.34l-2.48,3.37-2.32,3.48A178.52,178.52,0,0,0,703,400.31a233.77,233.77,0,0,0-10.66,31.56l-1.07,4-.94,4.06c-.61,2.72-1.27,5.41-1.77,8.15s-1.15,5.44-1.6,8.19l-1.4,8.23.06-.79c.36,18.34,7.82,36.08,19.61,50.61a136.49,136.49,0,0,0,20,19.89,174.51,174.51,0,0,0,23.56,16.13A233.69,233.69,0,0,0,802,572.59a258.58,258.58,0,0,0,28.31,6.34c4.78.83,9.59,1.45,14.43,2,2.4.2,4.88.5,7.22.69Z" transform="translate(-676.13 -162.84)"/><circle class="cls-1" cx="183.12" cy="90.72" r="84.84"/><path class="cls-2" d="M944.64,253.56a99.28,99.28,0,0,1-5.71,33A93.57,93.57,0,0,1,931.8,302a87.5,87.5,0,0,1-10.08,14,79.83,79.83,0,0,1-62.47,27,84.61,84.61,0,0,1-17.31-2.39,87.58,87.58,0,0,1-16.32-5.84,96.59,96.59,0,0,1-46.49-48c-.53-1.31-1.12-2.61-1.62-3.94s-1-2.66-1.42-4-.9-2.71-1.27-4.08-.76-2.75-1.07-4.14a92.39,92.39,0,0,1-2.35-17,85.23,85.23,0,0,1,24.18-63.67,89.23,89.23,0,0,1,29-20,86.63,86.63,0,0,1,69.18.39A81.94,81.94,0,0,1,921.83,191,90.57,90.57,0,0,1,939,220.52,98,98,0,0,1,944.64,253.56Zm-1.1,0a74.37,74.37,0,0,0-7.26-31.9,79.65,79.65,0,0,0-19.62-25.51,89.63,89.63,0,0,0-27-16.06,83.72,83.72,0,0,0-60.7.39,80.87,80.87,0,0,0-26.05,16.77,83.82,83.82,0,0,0-18,25.53c-.51,1.21-1.08,2.4-1.55,3.63s-1,2.46-1.38,3.72-.87,2.5-1.23,3.77-.75,2.55-1,3.84a81.37,81.37,0,0,0-2.3,15.82,77.06,77.06,0,0,0,5.16,31.76,75.1,75.1,0,0,0,45.36,43.83A81.51,81.51,0,0,0,843.45,333a88.11,88.11,0,0,0,15.8.86,92.38,92.38,0,0,0,57.52-22.74,80.2,80.2,0,0,0,19.59-25.58A73.67,73.67,0,0,0,943.54,253.56Z" transform="translate(-676.13 -162.84)"/><path class="cls-1" d="M1012.29,753c-68.83-42.8-110.74-160.47-178.36-172.7C841,484,912.71,441,1012.29,402,1115.08,442.37,1182,491,1190.64,580.3,1142.37,586.85,1098.46,691,1012.29,753Z" transform="translate(-676.13 -162.84)"/><path class="cls-2" d="M1012.3,753.55c-2.28-1.32-4.73-2.69-7.11-4.16-2.18-1.48-4.4-2.93-6.56-4.46l-6.33-4.82c-2-1.69-4.09-3.37-6.11-5.08a266.19,266.19,0,0,1-22.54-22.4c-7.09-7.85-13.89-16-20.45-24.2s-13.08-16.51-19.47-24.83-12.86-16.54-19.52-24.54S890.78,623.21,883.5,616a147.15,147.15,0,0,0-23.38-19.43c-2.14-1.29-4.19-2.76-6.41-3.85l-3.28-1.76c-1.11-.53-2.25-1-3.38-1.5a34.84,34.84,0,0,0-3.4-1.42l-3.47-1.21a27.07,27.07,0,0,0-3.52-1l-3.56-.89-4.16-1,.33-3.91a175.77,175.77,0,0,1,6.2-33.78,150.84,150.84,0,0,1,13.2-31.67c11.18-20,26.76-37.09,44.36-51.16s37-25.78,56.94-36.1,40.51-19.46,61.21-28.13l1-.44,1.19.44c10.48,3.87,20.91,7.92,31.24,12.25s20.56,9,30.59,14c20,10.17,39.47,22,57.06,36.48a203.58,203.58,0,0,1,24.6,23.84A169.54,169.54,0,0,1,1176.67,514,158.4,158.4,0,0,1,1190,545.88a174.35,174.35,0,0,1,6.4,33.86l.5,5.6-5.52.74c-8.75,1.17-17.31,6.15-25.06,12.29a148.91,148.91,0,0,0-11.27,10c-3.65,3.55-7.19,7.26-10.67,11.07-7,7.61-13.62,15.59-20.31,23.59L1104,667.15c-13.53,16-27.5,31.8-42.59,46.48q-11.28,11-23.46,21.1c-4.07,3.33-8.2,6.58-12.42,9.71-2.11,1.56-4.24,3.1-6.4,4.59l-1.62,1.12-.81.56-.89.6C1014.62,752.09,1013.44,752.83,1012.3,753.55Zm0-1.1,2.82-2.39,3-2.44c2-1.65,4-3.37,6-5.06,4-3.4,7.79-6.93,11.58-10.5,7.59-7.12,14.81-14.63,21.86-22.27,14-15.35,27.13-31.53,39.94-48s25.33-33.24,39.19-49.29c7-8,14.25-15.88,22.74-22.86,2.12-1.74,4.32-3.43,6.63-5a70.92,70.92,0,0,1,7.23-4.44,50.36,50.36,0,0,1,16.67-5.66l-5,6.33a162.69,162.69,0,0,0-18.33-61.31,158.75,158.75,0,0,0-18.06-26.63,199,199,0,0,0-22.91-23c-16.54-14.16-35.15-26-54.46-36.59a653.64,653.64,0,0,0-59.9-28.55h2.22c-10.47,3.86-20.92,7.8-31.22,12.09-5.16,2.11-10.29,4.32-15.39,6.58-2.53,1.17-5.08,2.3-7.59,3.5l-7.54,3.61c-20,9.87-39.3,21.28-56.33,35.56A176,176,0,0,0,872,489.73L869.46,493c-.85,1.09-1.62,2.23-2.44,3.34s-1.62,2.22-2.4,3.35l-2.25,3.46c-1.54,2.28-2.87,4.69-4.24,7.07l-1,1.78c-.33.6-.63,1.22-.94,1.83l-1.86,3.66a146,146,0,0,0-11,30.81,189,189,0,0,0-4.71,32.38l-3.83-4.94,4.11.9a31.26,31.26,0,0,1,4.08,1,67.43,67.43,0,0,1,7.91,2.8c1.27.55,2.57,1.07,3.83,1.66l3.69,1.92c2.5,1.22,4.78,2.76,7.13,4.2a144.63,144.63,0,0,1,24.86,20.93,316.2,316.2,0,0,1,21,24.09c6.57,8.32,12.84,16.8,19.06,25.29S942.73,675.59,949,684s12.49,16.78,19.06,24.89a302.94,302.94,0,0,0,20.75,23.37l5.61,5.44,5.83,5.22,6,5Z" transform="translate(-676.13 -162.84)"/><circle class="cls-1" cx="336.16" cy="207.28" r="84.84"/><path class="cls-2" d="M1097.68,370.12a99.53,99.53,0,0,1-5.71,33,94.44,94.44,0,0,1-7.14,15.47,86.82,86.82,0,0,1-10.07,14,79.87,79.87,0,0,1-62.47,27A84.52,84.52,0,0,1,995,457.16a87.42,87.42,0,0,1-16.33-5.84,96.63,96.63,0,0,1-46.48-48c-.54-1.31-1.13-2.61-1.62-3.94s-1-2.66-1.42-4-.9-2.71-1.28-4.08-.76-2.75-1.07-4.14a93.25,93.25,0,0,1-2.35-17,85.19,85.19,0,0,1,24.19-63.67,89.19,89.19,0,0,1,29-20,86.66,86.66,0,0,1,69.19.39,81.81,81.81,0,0,1,28.06,20.73,90.6,90.6,0,0,1,17.19,29.54A98.23,98.23,0,0,1,1097.68,370.12Zm-1.1,0a74.53,74.53,0,0,0-7.27-31.9,79.51,79.51,0,0,0-19.62-25.51,89.7,89.7,0,0,0-27-16.06A83.72,83.72,0,0,0,982,297a80.76,80.76,0,0,0-26,16.77,83.48,83.48,0,0,0-18,25.53c-.51,1.21-1.08,2.4-1.56,3.63s-1,2.46-1.38,3.72-.87,2.5-1.23,3.77-.74,2.55-1,3.84a82.92,82.92,0,0,0-2.3,15.82,77.24,77.24,0,0,0,5.17,31.76A75.1,75.1,0,0,0,981,445.71a81.33,81.33,0,0,0,15.51,3.81,88.06,88.06,0,0,0,15.8.86,92.33,92.33,0,0,0,57.51-22.74,80.2,80.2,0,0,0,19.59-25.58A73.82,73.82,0,0,0,1096.58,370.12Z" transform="translate(-676.13 -162.84)"/><path class="cls-3" d="M916.56,967.16s12-68-25-93c-24.29-16.42-121-50-134-62s-51.73-80.11-61-122c-21-101,1-99,1-99s7-20,18-9c7,21,9,49,9,49s20.65,94,73,122c54.57,29.24,82,41,82,41s-63-28-82-50-27-53-3-37,32,34,56,40,74,29,84,43,38,52,31,83,20,133,20,133Z" transform="translate(-676.13 -162.84)"/><path class="cls-3" d="M1082.42,967.12s-12-68,25-93c24.29-16.42,121-50,134-62s51.73-80.11,61-122c21-101-1-99-1-99s-7-20-18-9c-7,21-9,49-9,49s-20.65,94-73,122c-54.58,29.24-82,41-82,41s63-28,82-50,27-53,3-37-32,34-56,40-74,29-84,43-38,52-31,83-20,133-20,133Z" transform="translate(-676.13 -162.84)"/><path class="cls-4" d="M1038.53,517.15c.22.38,11.24-7,11.44-6.61.37.64-24.51,22.48-24.06,23.25.61,1.06,40.87-25.28,41.59-24,.84,1.44-53.85,39.23-53.16,40.43s64.13-39.22,65.08-37.57" transform="translate(-676.13 -162.84)"/><path class="cls-4" d="M936.11,519.74c.19.34,14.7-9.11,15-8.65.52.9-31.06,25.74-30.5,26.71.78,1.35,52.94-32.08,53.6-30.94.78,1.35-52.4,38.18-51.65,39.48.84,1.46,58.22-35.63,59.09-34.12,1,1.8-65.92,44-64.75,46.06.86,1.5,78.23-48,79.45-45.87S923.21,561,924.34,563c1,1.8,75.68-46.67,77-44.43,1,1.79-76.72,50.77-75.58,52.76.94,1.63,78.49-47.91,79.61-46,1.44,2.49-83.18,53.66-81.86,55.94,1.06,1.84,81.37-50.12,82.73-47.77.95,1.64-75.88,50.2-74.62,52.38,1,1.83,78.4-47.55,79.39-45.84s-75.58,50.18-74.47,52.11c1,1.65,82.84-51,84.23-48.63,1.52,2.63-85.81,56-84.41,58.46,2.15,3.73,148.81-90.63,150.85-87.1,2.57,4.46-148.62,89.2-146.21,93.39,1.92,3.31,154.52-93.42,156.34-90.27s-155,93.52-152.62,97.73,152.64-93.92,155.15-89.57S952.7,614.45,955.26,618.89c2.14,3.7,148.23-90.31,150.28-86.76,2.25,3.91-152.62,91.77-150,96.28,2.27,3.92,153.1-93.83,155.45-89.75,2.58,4.47-150.71,91.4-148.56,95.14,1.65,2.85,139.56-84.72,141.36-81.61,2.25,3.9-134.22,82.22-132.13,85.84,1.68,2.91,133.16-81.66,135.23-78.08,2.19,3.8-129.83,79.53-127.93,82.82,1.46,2.53,120.21-74.08,122.23-70.57,1.46,2.52-117.87,74.38-116.43,76.87s108.18-65.67,109.58-63.26c1.68,2.91-109.35,69.56-108,72,1.59,2.75,92.64-56.59,94-54.26,1.52,2.63-89.44,57.76-88.21,59.89s83.4-50.7,84.5-48.78-74.58,49.73-73.45,51.68c.82,1.42,58.78-35.56,59.48-34.34.92,1.59-57.71,41.22-57,42.46.45.78,42.66-25.76,43.15-24.91.65,1.13-39.69,30.68-39.19,31.56.26.45,17.5-10.66,17.74-10.24" transform="translate(-676.13 -162.84)"/></svg>