<?xml version="1.0" encoding="UTF-8"?>
<!-- Created with Inkscape (http://www.inkscape.org/) -->
<svg width="607.22" height="825.53" version="1.1" stroke-width="10" viewBox="-35 -35 607.22 825.53" xmlns="http://www.w3.org/2000/svg">
 <g transform="translate(-397.84 -146.97)">
  <path d="m452.67 875.19c-9.3801-5.1232-15.383-14.093-15.264-22.807 0.0379-2.7792 2.3709-17.953 5.1844-33.72l5.1156-28.667-23.74-23.333c-23.171-22.774-23.778-23.512-25.353-30.804-1.7772-8.2312-0.50262-14.636 4.2658-21.436 5.1659-7.3663 9.5079-8.7474 43.136-13.721 17.504-2.5887 31.893-4.7067 31.975-4.7067 0.082 0 6.3686-12.618 13.97-28.04s15.371-29.606 17.265-31.52c9.7471-9.8466 27.451-9.3211 36.971 1.0972 1.573 1.7214 5.923 9.2689 9.6667 16.772 8.4122 16.86 8.9147 22.347 2.5385 27.712-3.5376 2.9767-5.1666 3.4709-9.5168 2.8875-2.8867-0.38719-6.032-1.5-6.9895-2.4729-0.9575-0.97291-4.4748-7.3189-7.8161-14.102-3.3414-6.7833-6.3725-12.333-6.736-12.333-0.36341 0-6.7249 12.15-14.137 27-7.4118 14.85-14.765 28.408-16.34 30.13-5.4589 5.966-11.661 7.7593-42.197 12.201-16.5 2.3999-30.145 4.4777-30.323 4.6172-0.1776 0.1395 9.8706 10.383 22.329 22.764 30.304 30.115 28.771 25.464 21.828 66.229-2.9722 17.449-4.9033 31.726-4.2913 31.726 0.612 0 13.265-6.4257 28.118-14.279 24.834-13.131 27.595-14.28 34.339-14.288 8.2782-0.0103 19.069 4.5733 22.271 9.4604 4.296 6.5566 1.2057 16.483-6.0072 19.295-2.7559 1.0746-5.159 0.87956-10.277-0.83408l-6.6804-2.2366-27.232 14.374c-23.728 12.525-28.187 14.428-34.653 14.797-5.0381 0.28732-8.7053-0.27828-11.421-1.7615zm138.16-0.67707c-8.0792-4.1033-13.495-12.807-13.495-21.686 0-3.6562 2.1786-19.346 4.8414-34.867l4.8414-28.219-22.362-21.872c-23.225-22.716-27.237-28.241-27.291-37.582-0.0538-9.2715 5.6567-18.966 13.609-23.103 2.0011-1.0411 15.801-3.6782 30.667-5.8601 14.866-2.182 28.99-4.3027 31.389-4.7126 4.1848-0.71532 4.9465-1.9169 18.93-29.861 8.9257-17.837 15.92-30.178 18.056-31.859 8.5489-6.7246 22.016-7.2105 31.21-1.1262 4.6481 3.076 7.073 7.0466 20.034 32.805 14.112 28.047 14.932 29.338 19.078 30.046 2.3826 0.40701 16.495 2.5253 31.36 4.7073 14.866 2.182 28.666 4.8191 30.667 5.8601 7.9523 4.1373 13.663 13.832 13.609 23.103-0.0547 9.426-3.9966 14.838-27.31 37.492l-22.416 21.782 5.0443 29.943c3.1297 18.578 4.789 32.208 4.3719 35.909-1.4986 13.295-13.234 22.794-26.743 21.645-5.6098-0.47728-12-3.2818-33.779-14.825-14.773-7.83-27.593-14.236-28.488-14.236-0.89528 0-13.708 6.3935-28.473 14.208-22.805 12.07-27.949 14.288-34.179 14.741-5.686 0.41344-8.6448-0.13286-13.172-2.4319zm41.838-38.463c35.735-18.69 32.363-18.705 68.55 0.31117 14.969 7.8662 27.767 14.302 28.439 14.302 0.67236 0 0.87272-1.65 0.44525-3.6667-0.42746-2.0167-2.8608-15.908-5.4074-30.869-6.3899-37.541-7.781-33.527 21.652-62.481 12.869-12.66 23.155-23.244 22.859-23.52-0.29606-0.27669-13.738-2.3961-29.872-4.7098s-31.063-4.8854-33.177-5.7148c-7.6991-3.0206-10.935-7.6617-24.797-35.571-7.686-15.474-14.293-28.134-14.681-28.134s-7.1409 12.886-15.005 28.634c-12.502 25.036-14.954 29.068-19.51 32.083-5.5441 3.6689-10.681 4.7585-47.162 10.003-11.55 1.6605-21 3.4222-21 3.915s9.6254 10.075 21.39 21.294c12.173 11.608 22.548 22.668 24.077 25.665 3.7105 7.2732 3.4301 13.427-2.054 45.071-2.6053 15.033-4.739 27.527-4.7416 27.764-0.0119 1.0917 5.1246-1.3704 29.995-14.378zm204.96 27.781c-14.46-7.4242-26.861-14.024-27.557-14.667-1.88-1.7336-5.143-1.4245-9.8734 0.93536-8.6618 4.321-18.133-1.7813-18.133-11.683 0-4.5501 0.73864-6.0462 4.5598-9.2363 6.2248-5.1967 16.242-8.3731 22.999-7.2927 2.9493 0.47161 17.199 7.139 31.667 14.817s26.877 13.959 27.577 13.959c0.69971 0-1.0618-13.598-3.9144-30.217-3.7522-21.86-4.9353-31.909-4.2777-36.333 0.85484-5.7522 2.3274-7.5415 24.735-30.056 13.104-13.167 23.699-24.033 23.543-24.148s-13.483-2.1186-29.616-4.4528-31.133-4.9132-33.333-5.731c-7.7134-2.8676-11.556-8.3079-25.473-36.062-7.63-15.217-14.165-27.667-14.521-27.667-0.35664 0-3.5984 5.8784-7.2038 13.063-4.6752 9.3165-7.5648 13.523-10.075 14.667-9.4735 4.3164-18.644-1.4776-18.357-11.597 0.18512-6.5106 14.821-33.356 20.753-38.065 4.6567-3.6967 6.0128-4.0675 14.876-4.0675 15.033 0 16.83 1.891 34.267 36.05 7.847 15.372 14.451 28.412 14.676 28.978 0.22481 0.56528 14.205 3.0608 31.066 5.5456 32.602 4.8044 33.95 5.1131 39.688 9.0892 8.5108 5.8981 12.087 21.936 7.0628 31.671-1.3247 2.5667-12.507 14.567-24.849 26.667l-22.44 22 5.497 31.596c4.834 27.785 5.3039 32.241 3.8959 36.94-3.2807 10.95-13.656 18.797-24.853 18.797-5.1064 0-10.364-2.1913-32.386-13.499zm-73.624-264.76c-18.303-1.9456-52.037-8.9102-96.026-19.825-59.1-14.664-75.888-18.435-94.537-21.237-19.506-2.9297-22.293-2.7629-23.337 1.3967-1.1703 4.6627-10.808 14.852-17.373 18.367-5.0153 2.6852-7.2622 2.8876-32.06 2.8876-24.954 0-27.02-0.18909-32.171-2.9443-7.1469-3.8229-15.609-13.505-17.594-20.132-1.1413-3.8093-1.568-32.425-1.568-105.15v-99.917l3.4381-6.8994c3.8858-7.7977 10.985-14.049 19.276-16.974 6.7115-2.368 48.28-2.8034 56.252-0.5892 7.6952 2.1371 15.87 9.1638 19.66 16.898 3.9457 8.0524 5.3586 8.3877 15.376 3.6485 8.4775-4.0105 10.656-6.5076 25.502-29.228 10.514-16.091 24.524-34.106 45.021-57.892 14.636-16.984 24.982-40.378 29.541-66.799 4.9139-28.474 15.316-43.269 33.035-46.986 33.966-7.1246 67.137 38.724 60.912 84.192-2.0574 15.026-6.3282 26.522-17.446 46.959-11.442 21.033-12.223 25.439-5.6715 31.991 4.0763 4.0763 4.6108 4.2102 23.97 6.0018 41.822 3.8706 82.729 10.614 101.13 16.671 15.796 5.1986 27.779 16.572 33.52 31.815 3.2623 8.6618 3.2746 30.387 0.0226 39.718-2.332 6.691-2.342 7.3383-0.19664 12.667 5.5417 13.764 3.5313 35.147-4.9656 52.815-3.7044 7.7027-4.1871 9.965-3.8695 18.134 0.61551 15.83-5.1582 31.836-16.303 45.192-3.9662 4.7534-6.0684 8.9815-7.7416 15.57-6.8892 27.128-23.117 43.017-49.498 48.467-9.425 1.9468-33.358 2.5576-46.301 1.1818zm41.53-26.224c14.265-3.3576 23.332-11.057 27.592-23.431 1.9649-5.7068 1.5771-5.9744-11.613-8.0124-13.717-2.1194-18.46-3.7449-20.839-7.1415-4.5874-6.5495-0.84913-18.264 6.4098-20.085 1.7176-0.43108 11.129 0.64217 20.914 2.385l17.791 3.1688 2.5214-2.8682c4.005-4.5558 9.3387-16.737 10.036-22.92 0.75414-6.6907 2.9211-5.7287-24.029-10.668-18.097-3.3168-19.954-3.9261-23-7.5465-5.5397-6.5835-3.7571-15.627 3.7896-19.226 4.2404-2.0221 5.5571-1.9441 23.03 1.3637 10.193 1.9296 19.908 3.8157 21.589 4.1912 2.6492 0.59195 3.5274-0.34233 6.6011-7.0233 4.2314-9.1971 5.1814-25.529 1.6765-28.82-1.1509-1.0807-11.582-3.3993-24.569-5.4611-28.948-4.5958-31.309-5.8223-31.389-16.306-0.035-4.5858 0.66917-6.1469 4.0599-9 2.2563-1.8985 5.2884-3.4519 6.7381-3.4519 1.4497 0 12.01 1.513 23.468 3.3622 16.556 2.672 21.049 3.0141 21.89 1.6667 2.155-3.4547 2.7086-13.137 1.128-19.726-1.938-8.0783-6.3767-13.757-13.655-17.47-11.071-5.6479-47.781-12.176-96.237-17.113-29.997-3.0565-34.882-4.6389-44.331-14.361-11.313-11.64-14.191-29.689-6.9834-43.792 24.012-46.985 23.816-46.464 23.816-63.233 0-17.484-4.7571-30.524-14.95-40.983-14.336-14.709-23.635-8.4906-28.436 19.015-4.3112 24.699-13.899 49.731-25.585 66.798-2.9512 4.3101-10.902 14.137-17.668 21.837-15.791 17.97-25.65 30.923-37.219 48.9-5.1086 7.9381-10.822 16.637-12.696 19.332-4.9427 7.1052-17.996 15.25-30.878 19.266l-11.169 3.4824v74.51c0 40.98-0.15 74.96-0.33333 75.51-0.18334 0.55 1.4667 1.1451 3.6667 1.3224 24.288 1.9577 45.413 6.1903 104.67 20.972 24.567 6.1284 51.867 12.715 60.667 14.638 36.801 8.0391 67.849 10.612 83.53 6.9209zm-282.38-19.616 3.5131-2.7634v-192.3l-2.8991-3.0859c-2.7807-2.9599-3.7166-3.0859-22.914-3.0859-18.715 0-20.215 0.18833-23.101 2.8991l-3.0859 2.8991v191.66l3.2727 3.2727c3.1719 3.1719 3.8644 3.2727 22.487 3.2727 17.419 0 19.542-0.25811 22.727-2.7634z"/>
 </g>
</svg>
