<?xml version="1.0" encoding="utf-8"?>
<!-- Generator: Adobe Illustrator 16.0.0, SVG Export Plug-In . SVG Version: 6.00 Build 0)  -->
<!DOCTYPE svg PUBLIC "-//W3C//DTD SVG 1.1//EN" "http://www.w3.org/Graphics/SVG/1.1/DTD/svg11.dtd">
<svg version="1.1" id="Ebene_1" xmlns="http://www.w3.org/2000/svg" xmlns:xlink="http://www.w3.org/1999/xlink" x="0px" y="0px" stroke-width="10"
	 width="309px" height="307px" viewBox="0 0 309 307" enable-background="new 0 0 309 307" xml:space="preserve">
<g id="partnership">
	<path d="M232.855,91.064l29.07-19.652c1.555-1.047,1.975-3.183,0.907-4.738c-1.048-1.556-3.177-1.966-4.733-0.918l-32.561,22.026
		l-15.403,8.3c-6.04-0.713-34.659-3.965-45.464-2.952c-9.956,0.917-34.051,12.732-36.79,14.065
		c-0.708,0.355-1.296,0.968-1.616,1.716l-15.273,35.643c-0.169,0.429-0.259,0.888-0.259,1.348c0,0.663,0.149,6.639,6.055,12.594
		c2.958,2.948,7.382,4.145,11.791,4.145c5.117,0,10.245-1.586,13.128-3.91c5.297-4.27,12.62-19.073,15.303-24.695h38.517
		c1.875,0,3.401-1.521,3.401-3.401c0-1.89-1.526-3.407-3.401-3.407h-40.702c-1.326,0-2.538,0.769-3.102,1.991
		c-3.532,7.761-10.544,21.193-14.285,24.195c-2.853,2.294-12.21,3.87-15.832,0.27c-3.047-3.088-3.814-6.035-4-7.237l14.425-33.698
		c7.872-3.816,26.267-12.18,33.279-12.829c11.184-1.058,44.731,3.017,45.07,3.057c0.698,0.081,1.396-0.05,2.024-0.388l14.405-7.761
		c25.877,23.127,33.08,44.461,33.159,44.67l6.484-2.09C266.159,136.469,259.026,114.976,232.855,91.064z"/>
	<path d="M265.966,152.724c-0.864-1.666-2.928-2.304-4.589-1.437l-11.413,5.985c-0.837,0.43-1.46,1.208-1.71,2.125
		c-1.103,4.035-7.807,13.288-11.767,18.171l5.292,4.3c1.052-1.308,9.846-12.245,12.56-19.179l10.21-5.362
		C266.214,156.455,266.853,154.39,265.966,152.724z"/>
	<path d="M90.144,93.672L50.47,65.846c-1.521-1.067-3.66-0.704-4.728,0.828c-1.082,1.546-0.704,3.656,0.828,4.738l40.96,28.729
		c0.583,0.39,1.266,0.608,1.956,0.608c0.289,0,0.599-0.04,0.887-0.119c0.23-0.064,19.842-5.641,37.958-4.993l15.851-5.89
		C123.801,87.069,95.8,92.266,90.144,93.672z"/>
	<path d="M91.346,113.3l-6.579-1.795c-0.1,0.323-9.621,34.266-31.742,45.843c-0.948,0.519-1.621,1.472-1.785,2.539
		c-0.151,1.082,0.219,2.175,0.986,2.933c3.512,3.423,13.183,13.063,15.832,16.584l5.437-4.094
		c-2.445-3.263-9.268-10.191-13.337-14.246C81.983,146.629,90.941,114.736,91.346,113.3z"/>
	<g>
		<path d="M162.757,218.872c-1.228-1.436-3.381-1.585-4.799-0.358c-1.426,1.232-1.576,3.372-0.353,4.798l1.694,1.966
			c2.28,2.693,1.921,6.753-0.843,9.103l-14.858,13.094c-1.307,1.106-2.982,1.655-4.669,1.486c-1.72-0.165-3.276-0.978-4.419-2.346
			l-1.686-1.979c-1.093-1.309-1.621-2.948-1.472-4.635c0.149-1.73,0.963-3.303,2.314-4.409c0.389-0.339,0.669-0.758,0.888-1.212
			l18.605-16.062c5.805-4.893,6.528-13.591,1.664-19.378L153,196.746c-1.974-2.319-4.603-3.899-7.585-4.549
			c-1.861-0.388-3.657,0.759-4.057,2.595c-0.409,1.85,0.76,3.656,2.595,4.055c1.517,0.334,2.853,1.132,3.841,2.289l1.805,2.185
			c2.465,2.929,2.085,7.328-0.867,9.826l-27.992,24.152c-1.392,1.177-3.183,1.795-5.022,1.585c-1.861-0.159-3.546-1.026-4.734-2.443
			l-1.825-2.181c-1.177-1.391-1.74-3.177-1.586-5.013c0.15-1.885,1.013-3.57,2.439-4.769c0.304-0.259,0.529-0.582,0.733-0.927
			l20.838-17.647c5.727-4.828,6.475-13.457,1.632-19.283l-1.762-2.015c-3.536-4.21-9.187-5.871-14.43-4.239
			c-1.791,0.548-2.808,2.453-2.25,4.27c0.554,1.795,2.475,2.823,4.26,2.244c2.614-0.809,5.437,0.025,7.242,2.144l1.726,2.006
			c2.434,2.913,2.055,7.232-0.817,9.657l-25.748,21.816c-1.356,1.157-3.143,1.735-4.928,1.557c-1.825-0.164-3.466-0.998-4.633-2.369
			l-1.771-2.14c-1.167-1.383-1.72-3.133-1.556-4.928c0.149-1.815,1.018-3.458,2.429-4.64c0.13-0.104,0.195-0.259,0.305-0.374
			l13.976-11.707c4.744-3.995,6.125-10.693,3.372-16.25c-0.479-0.962-1.083-1.88-1.75-2.674l-1.76-2.104
			c-4.61-5.438-13.397-6.227-18.914-1.632l-18.461,15.498c-5.631,4.777-6.354,13.277-1.641,18.943l1.717,2.115
			c2.613,3.021,6.364,4.747,10.309,4.747c1.242,0,2.463-0.229,3.642-0.559c0.164,2.903,1.202,5.692,3.102,7.941l1.792,2.134
			c2.349,2.783,5.636,4.47,9.266,4.789c0.399,0.025,0.789,0.06,1.187,0.06c1.268,0,2.495-0.229,3.672-0.568
			c0.109,3.053,1.172,5.966,3.163,8.3l1.815,2.185c2.364,2.813,5.696,4.539,9.377,4.844c0.399,0.045,0.788,0.055,1.187,0.055
			c3.062,0,5.991-1.048,8.419-2.952c0.399,2.284,1.343,4.454,2.888,6.294l1.671,1.944c2.274,2.733,5.482,4.42,9.009,4.729
			c0.408,0.03,0.817,0.055,1.197,0.055c3.102,0,6.085-1.082,8.539-3.157l14.854-13.098c5.592-4.739,6.294-13.108,1.571-18.675
			L162.757,218.872z M73.045,207.416l-1.671-2.05c-2.359-2.833-2.01-7.063,0.763-9.418l18.43-15.462
			c1.233-1.028,2.708-1.576,4.28-1.576c1.956,0,3.796,0.863,5.057,2.344l1.751,2.115c0.339,0.399,0.629,0.833,0.858,1.298
			c1.366,2.758,0.688,6.045-1.656,8.01l-18.45,15.482C79.674,210.463,75.3,210.009,73.045,207.416z"/>
	</g>
	<path d="M193.807,151.157c-1.402-1.256-3.558-1.146-4.809,0.261c-1.252,1.415-1.133,3.551,0.26,4.817l44.601,39.812
		c3.696,3.292,4.021,8.999,0.723,12.699c-1.595,1.796-3.8,2.854-6.214,2.974c-2.514,0.07-4.688-0.699-6.604-2.405l-39.034-31.831
		c-1.457-1.192-3.622-0.998-4.799,0.474c-1.187,1.461-0.968,3.596,0.479,4.798l38.914,31.737c2.933,2.613,6.645,4.041,10.55,4.041
		c0.279,0,0.573-0.01,0.854-0.021c4.238-0.215,8.114-2.065,10.943-5.218c5.806-6.529,5.236-16.55-1.272-22.325L193.807,151.157z"/>
	<path d="M226.521,221.846c-1.826-0.305-3.621,0.938-3.93,2.793c-0.285,1.637-1.053,3.172-2.186,4.444
		c-1.601,1.78-3.83,2.833-6.225,2.973c-2.285,0.084-4.709-0.684-6.629-2.429l-31.793-25.453c-1.45-1.152-3.61-0.934-4.798,0.534
		c-1.183,1.467-0.933,3.605,0.528,4.783l31.644,25.322c2.928,2.645,6.634,4.061,10.55,4.061c0.278,0,0.573,0,0.867-0.011
		c4.229-0.229,8.101-2.094,10.903-5.217c2.03-2.214,3.337-4.928,3.846-7.86C229.623,223.941,228.367,222.164,226.521,221.846z"/>
	<path d="M187.582,248.081c-3.892,0-7.617-1.417-10.561-4.029l-5.152-4.319c-1.45-1.217-1.641-3.362-0.434-4.814
		c1.213-1.41,3.352-1.61,4.799-0.407l5.231,4.383c1.891,1.677,4.245,2.534,6.624,2.36c2.399-0.121,4.584-1.167,6.15-2.938
		c1.252-1.407,3.402-1.526,4.798-0.271c1.417,1.237,1.537,3.392,0.29,4.799c-2.788,3.132-6.644,4.979-10.874,5.207
		C188.165,248.071,187.876,248.081,187.582,248.081z"/>
</g>
</svg>
