<svg width="90.894" height="124.08" version="1.1" viewBox="0 0 90.894 124.08" xmlns="http://www.w3.org/2000/svg">
 <g transform="translate(-65.176 -55.279)">
  <g transform="translate(4.2345 .74571)">
   <path d="m118.34 95.441c-2.113 0.27151-5.6418-0.0786-7.8418-0.77802-3.1005-0.9857-3.9236-1.7092-3.6604-3.2172 0.18676-1.07 1.4845-3.457 2.8839-5.3043 1.3994-1.8474 4.3966-4.2 6.6604-5.228 2.2638-1.0281 5.9614-1.8791 8.2169-1.8912 2.2554-0.01208 5.5179 0.47206 7.25 1.0759 1.7321 0.6038 3.1492 1.6243 3.1492 2.2679 0 0.64352-1.1403 2.8482-2.534 4.8992s-4.2774 4.6186-6.4082 5.7056c-2.1308 1.0871-5.603 2.1986-7.716 2.4701zm-17.485-6.4407c-0.60058 0-2.7896-1.6976-4.8645-3.7725-2.1003-2.1003-4.262-5.5356-4.8768-7.75-0.60733-2.1876-1.0969-5.3275-1.0878-6.9775 9e-3 -1.65 0.89447-4.9348 1.9677-7.2995 1.6833-3.709 2.2108-4.1606 3.8409-3.2882 1.0393 0.5562 3.2824 2.5976 4.9847 4.5364s3.6006 5.4026 4.2186 7.6974c0.61792 2.2948 0.82328 5.7727 0.45635 7.7286s-1.3151 4.8093-2.1071 6.3408-1.9313 2.7846-2.5319 2.7846z" fill="#28b81d"/>
   <path d="m108.85 173.52c-4.0246 0.29652-8.3488-0.0927-11.815-1.0636-3.0069-0.84219-7.6181-2.9115-10.247-4.5985-2.629-1.687-6.1946-4.8534-7.9236-7.0365s-4.1947-6.5246-5.4792-9.6477c-2.2744-5.5297-2.3268-5.5666-2.3499-35.998-0.02374-31.25-1.2465-31.61 5.9084-31.615 3.0064-0.0021 7.0612-0.06535 8.4016 0.5454 1.3405 0.61075 2.9244 2.0733 3.5198 3.25 0.67282 1.3297 1.1875 12.17 1.3599 28.64 0.258 24.658 0.42018 26.743 2.333 29.999 1.1306 1.9247 3.8306 4.5048 6 5.7336 2.1718 1.2302 5.6806 2.2415 7.8081 2.2506 2.1251 9e-3 5.5596-0.9366 7.6321-2.1014 2.0726-1.1648 4.7744-3.9081 6.0042-6.0961 1.7258-3.0707 2.1312-5.0678 1.777-8.7544-0.26063-2.7124-1.4259-6.1341-2.6968-7.919-1.2308-1.7286-3.5411-3.8168-5.134-4.6405-1.5928-0.82369-5.6074-1.781-8.9212-2.1274-6.0251-0.62974-6.0251-0.62974-6.0251-10.11 0-9.4799 0-9.4799 8.75-9.0248 6.3161 0.32845 10.062 1.0841 13.466 2.7166 2.594 1.2439 6.74 4.0429 9.2133 6.22 2.6352 2.3196 5.76 6.5242 7.5479 10.156 2.0082 4.0793 3.2604 8.439 3.6634 12.756 0.44148 4.7277 0.14096 8.1798-1.0768 12.369-0.92905 3.1958-2.7384 7.4446-4.0208 9.4417s-4.0668 5.2951-6.1875 7.3289-6.3993 4.8591-9.508 6.2785c-3.4089 1.5565-8.1714 2.7664-12 3.0484z" fill="#90368c"/>
  </g>
 </g>
</svg>
