<svg width="289.95" height="134.08" version="1.1" viewBox="0 0 289.95 134.08" xmlns="http://www.w3.org/2000/svg">
 <g transform="translate(-65.176 -50.279)">
  <g transform="translate(4.2345 .74571)">
   <path d="m118.34 95.441c-2.113 0.27151-5.6418-0.0786-7.8418-0.77802-3.1005-0.9857-3.9236-1.7092-3.6604-3.2172 0.18676-1.07 1.4845-3.457 2.8839-5.3043 1.3994-1.8474 4.3966-4.2 6.6604-5.228 2.2638-1.0281 5.9614-1.8791 8.2169-1.8912 2.2554-0.01208 5.5179 0.47206 7.25 1.0759 1.7321 0.6038 3.1492 1.6243 3.1492 2.2679 0 0.64352-1.1403 2.8482-2.534 4.8992s-4.2774 4.6186-6.4082 5.7056c-2.1308 1.0871-5.603 2.1986-7.716 2.4701zm-17.485-6.4407c-0.60058 0-2.7896-1.6976-4.8645-3.7725-2.1003-2.1003-4.262-5.5356-4.8768-7.75-0.60733-2.1876-1.0969-5.3275-1.0878-6.9775 9e-3 -1.65 0.89447-4.9348 1.9677-7.2995 1.6833-3.709 2.2108-4.1606 3.8409-3.2882 1.0393 0.5562 3.2824 2.5976 4.9847 4.5364s3.6006 5.4026 4.2186 7.6974c0.61792 2.2948 0.82328 5.7727 0.45635 7.7286s-1.3151 4.8093-2.1071 6.3408-1.9313 2.7846-2.5319 2.7846z" fill="#28b81d"/>
   <path d="m309.11 152.43c-4.1828 0.25073-10.08 0.023-13.105-0.50615-3.025-0.52912-7.8418-2.1022-10.704-3.4957s-6.4209-3.9731-7.9082-5.7325-3.6106-5.2239-4.7186-7.6989c-1.4748-3.2944-2.1374-7.3972-2.4729-15.314-0.35651-8.4106-0.0567-12.298 1.3492-17.492 1.5039-5.5558 2.6651-7.5352 6.9121-11.782 3.4226-3.4226 7.0713-5.8701 11.074-7.428 4.8272-1.8791 7.9775-2.3372 16.469-2.3948 7.6635-0.05201 11.897 0.41364 15.671 1.7237 2.8438 0.98723 7.1686 3.5537 9.6106 5.7033 2.6748 2.3545 5.3507 6.0106 6.7305 9.196 1.6716 3.8591 2.4192 7.89 2.7674 14.92 0.29231 5.9021-7e-3 11.711-0.77203 15-0.68699 2.9523-2.4178 7.5543-3.8462 10.227-1.4284 2.6723-4.3514 6.3604-6.4956 8.1957-2.1441 1.8353-5.9362 4.0312-8.4268 4.8799-2.4906 0.84863-7.9506 1.7481-12.133 1.9988zm-1.6066-13.858c2.6833-0.30283 4.7277-1.2991 6.2158-3.029 1.2195-1.4178 2.7288-4.4775 3.354-6.7993 0.65556-2.4346 0.96805-8.6716 0.73822-14.734-0.28528-7.525-0.90164-11.458-2.1689-13.841-1.0703-2.0124-3.198-3.9253-5.3803-4.8371-2.3872-0.99743-7.2144-1.2145-9.8715-0.28769-3.4823 1.2147-4.3177 2.7635-5.1596 4.2044-0.6752 1.1557-0.68127 2.8504-1.3062 7.3099-0.61404 4.3817-0.81056 11.042-0.43856 14.863 0.37071 3.8082 1.3832 8.6965 2.2501 10.863 1.0484 2.6202 2.6127 4.4078 4.6723 5.3392 1.755 0.79363 4.8283 1.2047 7.0947 0.9489zm-67.298 13.358c-5.3354-0.0368-11.501-0.63616-13.701-1.3319-2.2-0.69577-5.35-1.9773-7-2.8478s-4.4394-3.0836-6.1988-4.9181c-1.7593-1.8344-4.2343-5.5853-5.5-8.3353-2.0372-4.4263-2.2961-6.4916-2.2566-18 0.0381-11.104 0.35717-13.684 2.1878-17.688 1.1788-2.5783 3.8777-6.4223 5.9976-8.5422s5.9206-4.8256 8.446-6.0127 7.6379-2.6888 11.361-3.3372c3.7912-0.6602 9.7078-0.90578 13.448-0.55817 3.6731 0.34138 8.1041 0.90584 9.8467 1.2544 3.0124 0.60248 3.1676 0.86126 3.1546 5.2587-8e-3 2.5438-0.285 5.6375-0.61664 6.875-0.57212 2.1349-1.0959 2.2506-10.236 2.261-5.2984 0.0061-11.341 0.29328-13.429 0.63828-2.8912 0.47779-4.1977 1.3688-5.4821 3.739-1.2869 2.3748-1.6905 5.7169-1.7042 14.112-0.0141 8.6634 0.35821 11.688 1.7529 14.241 0.97395 1.7823 2.9824 4.0323 4.4632 5 2.1931 1.4332 4.8556 1.7507 14.359 1.7122 11.666-0.0472 11.666-0.0472 12.192 6.4998 0.3523 4.3889 0.14484 6.7836-0.62936 7.2648-0.6352 0.39483-3.3146 1.1824-5.9541 1.7502s-9.1646 1.0023-14.5 0.96546zm-67.701-0.9331c-25.5 0-25.5 0-25.5-35s0-35 25.5-35 25.5 0 25.5 7 0 7-14.5 7-14.5 0-14.5 7 0 7 12 7 12 0 12 6.5 0 6.5-11 6.5c-15.502-0.12049-12.577-0.79051-13 7.5 0 7.5 0 7.5 14.5 7.5s14.5 0 14.5 7 0 7-25.5 7z" fill="#90368c"/>
   <path d="m108.85 173.52c-4.0246 0.29652-8.3488-0.0927-11.815-1.0636-3.0069-0.84219-7.6181-2.9115-10.247-4.5985-2.629-1.687-6.1946-4.8534-7.9236-7.0365s-4.1947-6.5246-5.4792-9.6477c-2.2744-5.5297-2.3268-5.5666-2.3499-35.998-0.02374-31.25-1.2465-31.61 5.9084-31.615 3.0064-0.0021 7.0612-0.06535 8.4016 0.5454 1.3405 0.61075 2.9244 2.0733 3.5198 3.25 0.67282 1.3297 1.1875 12.17 1.3599 28.64 0.258 24.658 0.42018 26.743 2.333 29.999 1.1306 1.9247 3.8306 4.5048 6 5.7336 2.1718 1.2302 5.6806 2.2415 7.8081 2.2506 2.1251 9e-3 5.5596-0.9366 7.6321-2.1014 2.0726-1.1648 4.7744-3.9081 6.0042-6.0961 1.7258-3.0707 2.1312-5.0678 1.777-8.7544-0.26063-2.7124-1.4259-6.1341-2.6968-7.919-1.2308-1.7286-3.5411-3.8168-5.134-4.6405-1.5928-0.82369-5.6074-1.781-8.9212-2.1274-6.0251-0.62974-6.0251-0.62974-6.0251-10.11 0-9.4799 0-9.4799 8.75-9.0248 6.3161 0.32845 10.062 1.0841 13.466 2.7166 2.594 1.2439 6.74 4.0429 9.2133 6.22 2.6352 2.3196 5.76 6.5242 7.5479 10.156 2.0082 4.0793 3.2604 8.439 3.6634 12.756 0.44148 4.7277 0.14096 8.1798-1.0768 12.369-0.92905 3.1958-2.7384 7.4446-4.0208 9.4417s-4.0668 5.2951-6.1875 7.3289-6.3993 4.8591-9.508 6.2785c-3.4089 1.5565-8.1714 2.7664-12 3.0484z" fill="#760671"/>
  </g>
 </g>
</svg>
